<?xml version="1.0" encoding="utf-8"?>
<!-- Generator: Adobe Illustrator 27.3.1, SVG Export Plug-In . SVG Version: 6.00 Build 0)  -->
<svg version="1.1" id="Camada_1" xmlns="http://www.w3.org/2000/svg" xmlns:xlink="http://www.w3.org/1999/xlink" x="0px" y="0px"
	 viewBox="0 0 552.8 552.8" style="enable-background:new 0 0 552.8 552.8;" xml:space="preserve">
<style type="text/css">
	.st0{fill:#2A384C;}
</style>
<g>
	<path class="st0" d="M53.3,523.5c-0.5,0.1-1.1,0.1-1.7,0.1s-0.9-0.2-0.9-0.6c0-0.4,0.3-0.6,0.8-0.6c0.6,0,1-0.1,1.3-0.3
		c0.4-0.4,0.8-1,1.2-1.8s0.8-1.6,1.1-2.4c0.3-0.7,0.7-1.6,1.2-2.6c0.4-1,0.9-2.1,1.5-3.3c0.5-1.2,1.1-2.5,1.7-3.8
		c1.5-3.6,2.5-5.9,3-7.2s0.8-1.9,0.8-2c0.1-0.1,0.1-0.3,0.2-0.4c0.2-0.3,0.3-0.4,0.4-0.4c0.1,0,0.2,0,0.3,0c0.1,0,0.1,0.1,0.2,0.2
		c0.2,0.2,0.4,0.6,0.5,1c0.2,0.4,0.4,1.1,0.7,1.8s0.7,1.6,1.1,2.6c0.4,1,0.8,2,1.3,3.1s0.9,2.2,1.3,3.3c0.4,1.1,0.9,2.2,1.3,3.2
		c0.4,1,0.8,2,1.1,2.8c1,2.5,1.7,4,2,4.5c0.3,0.5,0.5,0.8,0.7,1c0.3,0.3,0.7,0.4,1.3,0.4s0.9,0.2,0.9,0.6c0,0.4-0.4,0.6-1.1,0.6
		c-0.3,0-0.6,0-0.8,0c-0.2,0-0.5-0.1-0.7-0.1c-0.7-0.1-1.3-0.1-1.8-0.1l-3.5,0.3c-0.8,0-1.2-0.2-1.2-0.7c0-0.4,0.2-0.5,0.6-0.5
		l1.1,0.1c0.5,0,0.8-0.1,0.9-0.3c0.1-0.2,0.2-0.4,0.2-0.7c0-0.6-0.2-1.4-0.7-2.6l-1.5-3.7H58c-0.3,0.7-0.6,1.4-0.8,2
		c-0.2,0.6-0.5,1.2-0.7,1.7c-0.3,0.9-0.5,1.6-0.5,2.1s0.1,0.9,0.3,1.1c0.2,0.2,0.5,0.4,1.1,0.4l1.1-0.1c0.4,0,0.6,0.2,0.6,0.5
		c0,0.4-0.4,0.7-1.2,0.7l-3-0.3C54.4,523.3,53.8,523.4,53.3,523.5z M67.4,513.6l-4.3-10.7c-0.8,2.1-2.3,5.7-4.4,10.7H67.4z"/>
	<path class="st0" d="M98.2,523.6c-0.8,0-1.2-0.2-1.2-0.7c0-0.3,0.2-0.5,0.6-0.5l0.9,0.1c0.7,0,1.2-0.4,1.5-1.2
		c0.2-0.7,0.3-1.9,0.3-3.7V505c0-1.8-0.1-2.9-0.3-3.5c-0.2-0.5-0.4-0.9-0.6-1.1c-0.2-0.2-0.5-0.3-0.9-0.3l-0.9,0.1
		c-0.4,0-0.6-0.2-0.6-0.5c0-0.4,0.3-0.7,1-0.7s1.3,0,1.9,0.1c0.6,0.1,1.2,0.1,1.9,0.1c0.6,0,1.3,0,1.9-0.1s1.4-0.1,2.3-0.1
		c0.9,0,1.9,0.1,3,0.4s2,0.7,2.7,1.3c1.5,1.1,2.3,2.6,2.3,4.5c0,2.1-0.9,3.9-2.6,5.4c-0.6,0.5-1.2,0.9-1.8,1.2l5.8,8.5
		c0.7,1,1.4,1.6,2.2,1.8c0.2,0.1,0.5,0.1,0.9,0.1c0.6,0.1,0.9,0.3,0.9,0.6c0,0.3-0.3,0.5-1,0.5h-3.4c-0.8,0-1.6-0.5-2.2-1.6
		l-4.5-7.2c-0.4-0.6-0.8-1.1-1.2-1.4c-0.4-0.3-0.9-0.4-1.7-0.4c-0.8,0-1.4,0-2,0.1v4.9c0,1.8,0.1,3,0.2,3.5c0.2,0.5,0.4,0.9,0.6,1.1
		c0.2,0.2,0.5,0.3,0.9,0.3l0.9-0.1c0.4,0,0.6,0.2,0.6,0.5c0,0.4-0.4,0.7-1.1,0.7c-0.4,0-0.8,0-1.3-0.1c-1.4-0.2-2.7-0.3-3.7-0.1
		C99.3,523.5,98.6,523.6,98.2,523.6z M103.2,511.2c0.8,0.1,1.5,0.1,2.2,0.1h1.1c1.2,0,2.1-0.4,2.9-1.2c0.9-0.9,1.4-2.2,1.4-3.8
		c0-1.9-0.6-3.4-1.7-4.5c-1.1-1.1-2.5-1.6-4.2-1.6c-0.6,0-1.1,0.1-1.3,0.3s-0.4,0.5-0.4,0.9V511.2z"/>
	<path class="st0" d="M169.1,525.6c0.2,0,0.3,0.1,0.3,0.3c0,0.2-0.1,0.4-0.3,0.5c-0.2,0.2-0.4,0.3-0.7,0.4c-0.7,0.3-1.3,0.4-1.9,0.4
		s-1.1,0-1.5-0.1c-0.4-0.1-0.9-0.2-1.5-0.3c-1.2-0.3-2.6-0.8-4-1.4c-2.6-1.1-4.8-1.7-6.6-1.7c-1.8,0-3.5-0.3-5-1
		c-1.5-0.6-2.8-1.5-3.9-2.6c-2.3-2.4-3.4-5.4-3.4-9c0-3.6,1.3-6.6,3.8-8.9c1.1-1.1,2.5-2,4-2.6s3.2-0.9,4.9-0.9c1.8,0,3.4,0.3,4.9,1
		c1.5,0.6,2.8,1.5,3.9,2.6c2.3,2.4,3.4,5.4,3.4,9.1c0,2.6-0.7,5-2.1,7s-3.3,3.5-5.7,4.4c1.7,0.1,3.5,0.6,5.3,1.5
		c1.4,0.7,2.4,1.1,2.9,1.3c0.5,0.2,1,0.3,1.3,0.3s0.6,0,0.8-0.1c0.2,0,0.3-0.1,0.4-0.1C168.7,525.7,168.9,525.6,169.1,525.6z
		 M143.6,510.2c0,1.6,0.3,3.1,0.8,4.6c0.5,1.5,1.2,2.8,2.2,4c2,2.5,4.5,3.7,7.6,3.7c2.3,0,4.3-0.9,5.8-2.7c1.6-1.8,2.3-4.2,2.3-7.2
		c0-3.5-0.9-6.4-2.8-8.7c-1.9-2.3-4.2-3.4-7.1-3.4c-2.4,0-4.4,0.9-6.1,2.7C144.5,504.9,143.6,507.3,143.6,510.2z"/>
	<path class="st0" d="M196.1,500.2l-0.9-0.1c-0.7,0-1.2,0.4-1.5,1.2c-0.2,0.7-0.3,1.9-0.3,3.7v8.9c0,1.7,0.1,2.9,0.4,3.6
		c0.2,0.7,0.6,1.4,1,2c0.4,0.6,0.9,1.1,1.5,1.5c1.2,0.8,2.5,1.3,4,1.3s2.7-0.2,3.7-0.5c1-0.4,1.7-0.9,2.3-1.6
		c1.1-1.3,1.6-3.4,1.6-6.3l0-8.8c0-1.8-0.1-2.9-0.3-3.5c-0.2-0.5-0.4-0.9-0.6-1.1s-0.5-0.3-0.9-0.3l-0.9,0.1c-0.4,0-0.6-0.2-0.6-0.5
		c0-0.4,0.3-0.7,1-0.7c0.7,0,1.2,0,1.7,0.1c0.5,0.1,1,0.1,1.5,0.1l3-0.3c0.8,0,1.1,0.2,1.1,0.7c0,0.3-0.2,0.5-0.6,0.5l-0.9-0.1
		c-0.7,0-1.2,0.4-1.5,1.2c-0.2,0.7-0.3,1.9-0.3,3.7l0,9.7c0,2.7-0.9,4.9-2.6,6.6c-1.7,1.7-4,2.6-6.8,2.6c-3.1,0-5.5-0.9-7.3-2.6
		c-1.8-1.8-2.7-4.2-2.7-7.4V505c0-1.7-0.1-2.9-0.3-3.4c-0.2-0.6-0.4-0.9-0.6-1.1s-0.6-0.3-0.9-0.3l-0.9,0.1c-0.4,0-0.6-0.2-0.6-0.5
		c0-0.4,0.3-0.7,1-0.7s1.3,0,1.9,0.1c0.6,0.1,1.3,0.1,2,0.1c0.7,0,1.4,0,2-0.1c0.7-0.1,1.3-0.1,2-0.1c0.7,0,1,0.2,1,0.7
		C196.7,500,196.5,500.2,196.1,500.2z"/>
	<path class="st0" d="M235.5,523.6c-0.8,0-1.2-0.2-1.2-0.7c0-0.3,0.2-0.5,0.6-0.5l0.9,0.1c0.6,0,1.1-0.3,1.3-0.9
		c0.3-0.7,0.4-2,0.4-3.9l-0.1-12.7c0-2-0.1-3.2-0.3-3.7c-0.2-0.5-0.4-0.8-0.6-1c-0.2-0.1-0.5-0.2-0.8-0.2l-0.9,0.1
		c-0.4,0-0.6-0.2-0.6-0.5c0-0.4,0.3-0.7,1-0.7c0.7,0,1.3,0,1.9,0.1s1.2,0.1,1.9,0.1s1.3,0,1.8-0.1s1.2-0.1,1.9-0.1s1,0.2,1,0.7
		c0,0.3-0.2,0.5-0.6,0.5l-0.9-0.1c-0.6,0-1.1,0.3-1.3,0.9c-0.3,0.7-0.4,2-0.4,3.9l0.1,12.7c0,1.9,0.1,3.2,0.4,3.7
		c0.2,0.5,0.5,0.9,0.7,1c0.2,0.1,0.5,0.2,0.8,0.2l0.9-0.1c0.4,0,0.6,0.2,0.6,0.5c0,0.4-0.4,0.7-1.1,0.7c-0.4,0-0.8,0-1.3-0.1
		c-1.5-0.2-2.8-0.3-3.8-0.1S235.9,523.6,235.5,523.6z"/>
	<path class="st0" d="M271.9,523.6c-0.8,0-1.2-0.2-1.2-0.7c0-0.3,0.2-0.5,0.6-0.5l0.9,0.1c0.7,0,1.2-0.4,1.4-1.2
		c0.2-0.7,0.3-1.9,0.3-3.7v-16.8h-0.5c-2.1,0-3.8,0.2-5,0.6c-0.9,0.3-1.4,0.8-1.8,1.6c-0.2,0.6-0.5,0.8-0.7,0.8
		c-0.3,0-0.5-0.2-0.5-0.6c0-0.1,0-0.3,0.1-0.4c0.1-0.2,0.1-0.3,0.2-0.6c0.2-0.6,0.3-1.2,0.3-1.8s0.1-1,0.2-1.2
		c0.1-0.2,0.2-0.3,0.4-0.3c0.2,0,0.3,0,0.5,0s0.4,0.1,0.6,0.1c0.7,0.1,1.6,0.1,2.7,0.1H282c0.9,0,1.5,0,1.9-0.1
		c0.4-0.1,0.7-0.1,0.9-0.1c0.4,0,0.6,0.2,0.6,0.6c0,0.2,0,0.4-0.1,0.7c-0.2,0.6-0.3,1.1-0.4,1.5c-0.1,0.4-0.1,0.8-0.2,1
		c0,0.3-0.1,0.5-0.2,0.6c-0.1,0.3-0.2,0.4-0.4,0.4c-0.2,0-0.3-0.1-0.4-0.2c-0.1-0.1-0.1-0.4-0.2-0.8c-0.1-0.4-0.2-0.7-0.3-1
		c-0.1-0.3-0.3-0.4-0.6-0.6c-0.4-0.3-1.1-0.4-2-0.4h-3.9v16.8c0,1.8,0.1,3,0.2,3.5s0.4,0.9,0.6,1.1c0.2,0.2,0.5,0.3,0.9,0.3l0.9-0.1
		c0.4,0,0.6,0.2,0.6,0.5c0,0.4-0.4,0.7-1.1,0.7c-0.4,0-0.8,0-1.3-0.1c-1.4-0.2-2.7-0.3-3.7-0.1C273,523.5,272.3,523.6,271.9,523.6z"
		/>
	<path class="st0" d="M308.1,523.6c-0.7,0-1-0.2-1-0.7c0-0.3,0.2-0.5,0.6-0.5l0.9,0.1c0.7,0,1.1-0.3,1.4-0.9c0.3-0.7,0.4-2,0.4-4
		V505c0-2-0.1-3.2-0.3-3.7c-0.2-0.5-0.4-0.8-0.6-1c-0.2-0.1-0.5-0.2-0.9-0.2l-0.9,0.1c-0.4,0-0.6-0.2-0.6-0.5c0-0.4,0.3-0.7,1-0.7
		c0.6,0,1.2,0,1.6,0s0.8,0.1,1.2,0.1c1.1,0.1,2,0.1,2.6,0.1c0.6,0,1.3,0,2,0s1.5-0.1,2.4-0.1c2.3-0.1,4-0.1,4.9-0.1
		c0.9,0,1.4,0.1,1.5,0.2c0.1,0.1,0.2,0.3,0.2,0.4s0,0.4,0,0.5c0,0.2,0,0.4,0,0.6c0,0.3,0,0.7-0.1,1.2c-0.1,0.5-0.1,0.9-0.2,1.1
		c-0.1,0.2-0.2,0.3-0.4,0.3c-0.2,0-0.3,0-0.3-0.1c-0.1-0.1-0.1-0.3-0.2-0.5c-0.1-0.3-0.3-0.6-0.5-0.8c-0.3-0.3-0.7-0.5-1.2-0.6
		c-1.1-0.3-3.1-0.5-6-0.5h-1.6c-0.3,0-0.5,0-0.5,0.1c-0.1,0.1-0.1,0.3-0.1,0.6v7.6c1.4,0.2,2.6,0.3,3.5,0.3c0.9,0,1.6,0,2,0
		c0.4,0,0.7,0,1-0.1c0.5-0.1,0.8-0.3,1-0.6c0.4-0.6,0.7-1,1-1c0.3,0,0.5,0.2,0.5,0.5l-0.6,2.6l0.1,1.4c0,0.9-0.2,1.3-0.6,1.3
		c-0.3,0-0.5-0.2-0.5-0.7s0-0.8-0.1-1s-0.2-0.4-0.5-0.5c-0.4-0.2-1.3-0.3-2.8-0.3c-1.5,0-2.8,0.1-4,0.2v4.3c0,2.6,0.1,4.8,0.2,6.6
		c1,0.2,2,0.3,3.2,0.3c1.1,0,2.1,0,2.9-0.1s1.5-0.2,2.1-0.4c1.2-0.3,2-1,2.6-2c0.2-0.4,0.5-0.6,0.7-0.6c0.2,0,0.4,0.2,0.4,0.5
		c0,0.1,0,0.3-0.1,0.6c-0.1,0.3-0.2,0.8-0.4,1.4c-0.2,0.6-0.3,1.1-0.4,1.3c-0.1,0.3-0.2,0.5-0.3,0.6c-0.2,0.2-0.5,0.4-1.1,0.4
		c-0.5,0-1,0-1.5,0c-0.5,0-1,0-1.5,0c-0.6,0-1.6-0.1-2.9-0.1c-3.3-0.2-5.2-0.2-5.7-0.2c-0.6,0-1,0.1-1.3,0.1c-0.3,0-0.6,0.1-0.8,0.1
		C308.7,523.6,308.4,523.6,308.1,523.6z"/>
	<path class="st0" d="M353.5,523.6c-0.8,0-1.2-0.2-1.2-0.7c0-0.3,0.2-0.5,0.6-0.5l0.9,0.1c0.7,0,1.2-0.4,1.4-1.2
		c0.2-0.7,0.3-1.9,0.3-3.7v-16.8h-0.5c-2.1,0-3.8,0.2-5,0.6c-0.9,0.3-1.4,0.8-1.8,1.6c-0.2,0.6-0.5,0.8-0.7,0.8
		c-0.3,0-0.5-0.2-0.5-0.6c0-0.1,0-0.3,0.1-0.4c0.1-0.2,0.1-0.3,0.2-0.6c0.2-0.6,0.3-1.2,0.3-1.8s0.1-1,0.2-1.2
		c0.1-0.2,0.2-0.3,0.4-0.3c0.2,0,0.3,0,0.5,0s0.4,0.1,0.6,0.1c0.7,0.1,1.6,0.1,2.7,0.1h11.4c0.9,0,1.5,0,1.9-0.1
		c0.4-0.1,0.7-0.1,0.9-0.1c0.4,0,0.6,0.2,0.6,0.6c0,0.2,0,0.4-0.1,0.7c-0.2,0.6-0.3,1.1-0.4,1.5c-0.1,0.4-0.1,0.8-0.2,1
		c0,0.3-0.1,0.5-0.2,0.6c-0.1,0.3-0.2,0.4-0.4,0.4c-0.2,0-0.3-0.1-0.4-0.2c-0.1-0.1-0.1-0.4-0.2-0.8c-0.1-0.4-0.2-0.7-0.3-1
		c-0.1-0.3-0.3-0.4-0.6-0.6c-0.4-0.3-1.1-0.4-2-0.4h-3.9v16.8c0,1.8,0.1,3,0.2,3.5s0.4,0.9,0.6,1.1c0.2,0.2,0.5,0.3,0.9,0.3l0.9-0.1
		c0.4,0,0.6,0.2,0.6,0.5c0,0.4-0.4,0.7-1.1,0.7c-0.4,0-0.8,0-1.3-0.1c-1.4-0.2-2.7-0.3-3.7-0.1C354.5,523.5,353.8,523.6,353.5,523.6
		z"/>
	<path class="st0" d="M397.1,500.2l-0.9-0.1c-0.7,0-1.2,0.4-1.5,1.2c-0.2,0.7-0.3,1.9-0.3,3.7v8.9c0,1.7,0.1,2.9,0.4,3.6
		c0.2,0.7,0.6,1.4,1,2c0.4,0.6,1,1.1,1.5,1.5c1.2,0.8,2.5,1.3,4,1.3s2.7-0.2,3.7-0.5c1-0.4,1.7-0.9,2.3-1.6c1.1-1.3,1.6-3.4,1.6-6.3
		l0-8.8c0-1.8-0.1-2.9-0.3-3.5c-0.2-0.5-0.4-0.9-0.6-1.1s-0.5-0.3-0.9-0.3l-0.9,0.1c-0.4,0-0.6-0.2-0.6-0.5c0-0.4,0.3-0.7,1-0.7
		c0.7,0,1.2,0,1.7,0.1c0.5,0.1,1,0.1,1.5,0.1l3-0.3c0.8,0,1.1,0.2,1.1,0.7c0,0.3-0.2,0.5-0.6,0.5l-0.9-0.1c-0.7,0-1.2,0.4-1.5,1.2
		c-0.2,0.7-0.3,1.9-0.3,3.7l0,9.7c0,2.7-0.8,4.9-2.6,6.6c-1.7,1.7-4,2.6-6.8,2.6c-3.1,0-5.5-0.9-7.3-2.6c-1.8-1.8-2.7-4.2-2.7-7.4
		V505c0-1.7-0.1-2.9-0.3-3.4c-0.2-0.6-0.4-0.9-0.6-1.1c-0.2-0.2-0.5-0.3-0.9-0.3l-0.9,0.1c-0.4,0-0.6-0.2-0.6-0.5
		c0-0.4,0.3-0.7,1-0.7c0.7,0,1.3,0,1.9,0.1c0.6,0.1,1.3,0.1,2,0.1c0.7,0,1.4,0,2-0.1c0.7-0.1,1.3-0.1,2-0.1c0.7,0,1,0.2,1,0.7
		C397.7,500,397.5,500.2,397.1,500.2z"/>
	<path class="st0" d="M436.3,523.6c-0.8,0-1.2-0.2-1.2-0.7c0-0.3,0.2-0.5,0.6-0.5l0.9,0.1c0.7,0,1.2-0.4,1.5-1.2
		c0.2-0.7,0.3-1.9,0.3-3.7V505c0-1.8-0.1-2.9-0.3-3.5c-0.2-0.5-0.4-0.9-0.6-1.1s-0.5-0.3-0.9-0.3l-0.9,0.1c-0.4,0-0.6-0.2-0.6-0.5
		c0-0.4,0.3-0.7,1-0.7c0.7,0,1.3,0,1.9,0.1s1.2,0.1,1.9,0.1c0.6,0,1.3,0,1.9-0.1c0.6-0.1,1.4-0.1,2.3-0.1c0.9,0,1.9,0.1,3,0.4
		c1.1,0.3,2,0.7,2.7,1.3c1.5,1.1,2.3,2.6,2.3,4.5c0,2.1-0.9,3.9-2.6,5.4c-0.6,0.5-1.2,0.9-1.8,1.2l5.8,8.5c0.7,1,1.4,1.6,2.2,1.8
		c0.2,0.1,0.5,0.1,0.9,0.1c0.6,0.1,0.9,0.3,0.9,0.6c0,0.3-0.3,0.5-1,0.5h-3.4c-0.8,0-1.6-0.5-2.2-1.6l-4.5-7.2
		c-0.4-0.6-0.8-1.1-1.2-1.4c-0.4-0.3-0.9-0.4-1.7-0.4s-1.4,0-2,0.1v4.9c0,1.8,0.1,3,0.2,3.5s0.4,0.9,0.6,1.1
		c0.2,0.2,0.5,0.3,0.9,0.3l0.9-0.1c0.4,0,0.6,0.2,0.6,0.5c0,0.4-0.4,0.7-1.1,0.7c-0.4,0-0.8,0-1.3-0.1c-1.4-0.2-2.7-0.3-3.7-0.1
		C437.4,523.5,436.7,523.6,436.3,523.6z M441.3,511.2c0.8,0.1,1.5,0.1,2.2,0.1h1.1c1.2,0,2.1-0.4,2.9-1.2c0.9-0.9,1.4-2.2,1.4-3.8
		c0-1.9-0.6-3.4-1.7-4.5c-1.1-1.1-2.5-1.6-4.2-1.6c-0.6,0-1.1,0.1-1.3,0.3c-0.3,0.2-0.4,0.5-0.4,0.9V511.2z"/>
	<path class="st0" d="M479.1,523.5c-0.5,0.1-1.1,0.1-1.7,0.1c-0.6,0-0.9-0.2-0.9-0.6c0-0.4,0.3-0.6,0.8-0.6c0.6,0,1-0.1,1.3-0.3
		c0.4-0.4,0.8-1,1.2-1.8s0.8-1.6,1.1-2.4c0.3-0.7,0.7-1.6,1.2-2.6c0.4-1,0.9-2.1,1.5-3.3c0.5-1.2,1.1-2.5,1.7-3.8
		c1.5-3.6,2.5-5.9,3-7.2c0.5-1.2,0.8-1.9,0.8-2c0.1-0.1,0.1-0.3,0.2-0.4c0.2-0.3,0.3-0.4,0.4-0.4c0.1,0,0.2,0,0.3,0s0.2,0.1,0.2,0.2
		c0.2,0.2,0.4,0.6,0.5,1c0.2,0.4,0.4,1.1,0.7,1.8s0.7,1.6,1.1,2.6c0.4,1,0.8,2,1.3,3.1c0.4,1.1,0.9,2.2,1.3,3.3
		c0.4,1.1,0.9,2.2,1.3,3.2c0.4,1,0.8,2,1.1,2.8c1,2.5,1.7,4,2,4.5c0.3,0.5,0.5,0.8,0.7,1c0.3,0.3,0.7,0.4,1.3,0.4
		c0.6,0,0.9,0.2,0.9,0.6c0,0.4-0.4,0.6-1.1,0.6c-0.3,0-0.6,0-0.8,0c-0.2,0-0.5-0.1-0.7-0.1c-0.7-0.1-1.3-0.1-1.8-0.1l-3.5,0.3
		c-0.8,0-1.2-0.2-1.2-0.7c0-0.4,0.2-0.5,0.6-0.5l1.1,0.1c0.5,0,0.8-0.1,0.9-0.3c0.1-0.2,0.2-0.4,0.2-0.7c0-0.6-0.2-1.4-0.7-2.6
		l-1.5-3.7h-10c-0.3,0.7-0.6,1.4-0.8,2c-0.2,0.6-0.5,1.2-0.7,1.7c-0.3,0.9-0.5,1.6-0.5,2.1s0.1,0.9,0.3,1.1c0.2,0.2,0.5,0.4,1.1,0.4
		l1.1-0.1c0.4,0,0.6,0.2,0.6,0.5c0,0.4-0.4,0.7-1.2,0.7l-3-0.3C480.2,523.3,479.6,523.4,479.1,523.5z M493.2,513.6l-4.3-10.7
		c-0.8,2.1-2.3,5.7-4.4,10.7H493.2z"/>
</g>
<path class="st0" d="M163.7,279.9c-12.8,3.2-25.2,4.7-38.7,4.7c-28.8-0.1-58.3-0.1-88.5,0c-0.2,0-0.2-0.1-0.2-0.2l0-2.8
	c0-0.1,0-0.1,0.1-0.1c3.1-0.1,6.3-0.1,9.7,0c9.6,0.4,15.2-5.3,15.2-14.9c0-74.6,0-148.9,0-222.9c0-1.5-0.3-3.2-0.8-4.9
	c-1.6-5.5-6-9-11.9-9.2c-3.4-0.1-7.3-0.1-11.8-0.1c-0.3,0-0.5-0.2-0.5-0.5l0-2.1c0-0.3,0.3-0.6,0.6-0.6c30.5,0,61.1,0,91.7,0
	c4.7,0,9.4,0.4,14,0.8c64.8,6.8,113.6,55.5,116.7,121.3c1.5,30.9-6.7,60.1-24.8,84.7c-0.2,0.3-0.3,0.7-0.2,1.1
	c14.2,47.7,28.3,94.2,42.4,139.7c2.5,8.2,6.2,15.9,11.1,22.9c1.8,2.7,4,4.9,6.5,6.7c0.2,0.2,0.5,0.1,0.7-0.1c3.8-3.9,4.4-8,4.4-13.9
	c0-70.9,0-143,0-216.2c0-4.8-0.3-8.2-1-10c-2.5-7.1-8.4-8.7-15.6-8.5c-2.7,0-5.4,0.1-8.2,0c-0.1,0-0.2-0.1-0.2-0.2v-2.8
	c0-0.1,0.1-0.2,0.2-0.2h68.5c0.2,0,0.3,0.1,0.3,0.3l0,2.5c0,0.2-0.1,0.3-0.3,0.3c-4.9,0.2-10.3-0.5-14.9,0.6
	c-5.9,1.4-9.6,6.5-9.7,12.9c0,1,0,2.1,0,3.1c-0.2,68.2-0.3,146.5-0.1,235.1c0,0.1,0.1,0.2,0.2,0.2c17.5,0.1,34.7,0.1,51.4,0
	c17.6-0.1,32.3-6.4,44-19c7-7.5,12.4-16.2,16.5-25.9c5.1-11.9,8.9-24.7,11.2-38.1c0-0.3-0.1-0.4-0.3-0.4c-5.9,0-12.4-0.3-19.4-0.9
	c-2.7-0.2-7.4-1-13.9-2.2c-6.5-1.3-13.1-2-20-2.4c-2-0.1-4.4,0.3-6.4,0.6c-3.5,0.5-6.3,1.9-8.5,4.2c-0.3,0.3-0.6,0.4-0.9,0.4l-2.2,0
	c-0.4,0-0.6-0.2-0.6-0.6l0-133.3c0-0.2,0.1-0.3,0.3-0.3l2.4,0c0.2,0,0.4,0.2,0.4,0.4c0,21.7,0,43,0,64.1c0,5,0.4,10.2,1.1,15.6
	c2.1,15.6,8.9,30.5,21.7,39.3c6,4.1,12.2,6.9,18.9,8.6c8.9,2.2,18,3.3,27.2,3.3c0.6,0,1-0.3,1.1-0.9l1.1-5.1
	c0.1-0.3,0.2-0.4,0.5-0.4h2.2c0.3,0,0.4,0.1,0.3,0.4l-0.9,5.3c0,0.3,0.2,0.5,0.5,0.5c25.2-1.9,44.1-17.9,49.7-42.5
	c2-8.4,2.7-16.9,2.1-25.5c-0.7-10.5-4.5-19.8-11.5-28c-4.8-5.6-10.6-10.6-17.4-15.1c-6.9-4.5-13.3-8.3-19.5-11.5
	c-11.6-6-22.4-11.6-32.3-17.1c-11.7-6.4-24.3-15.3-33.1-25.9c-10.2-12.2-15.2-26.8-14.9-43.7c0.1-6.4,1-12.2,2.6-17.4
	c7.3-23.2,31.7-35.4,54.1-37.8c3.9-0.4,7.9-0.7,12.1-0.9c2.1-0.1,4.1,0.2,6.2,0.3c8.4,0.3,16.2,1.4,23.3,3.3
	c5.3,1.4,11.4,3.3,18.4,5.6c3.1,1,6.5,1.6,9.8,1.8c8.7,0.4,14.6-3.1,17.8-10.5c0.1-0.3,0.4-0.5,0.7-0.5h1.5c0.5,0,0.7,0.2,0.5,0.7
	l-46.6,130.4c-0.1,0.3,0,0.5,0.2,0.7c21.5,12.6,38.9,29.2,43.2,54.2c1.6,9.2,1.7,18.4,0.3,27.6c-4,25.6-22,45.7-47.5,52.3
	c-7.1,1.8-13.5,2.4-20.5,2.9c-0.4,0-0.7,0.3-0.7,0.6l-15.7,91c0,0.2-0.1,0.3-0.3,0.3h-2.9c-0.1,0-0.3-0.1-0.2-0.3
	c0.3-3-1.2-4.6-4.5-4.7c-1.3-0.1-2.7-0.3-3.9-0.3c-57.5,0-115,0-172.5,0c-0.2,0-0.4-0.2-0.4-0.4l0-2c0-0.2,0.2-0.4,0.4-0.4
	c3.6,0,7.3,0,11.2,0c2.3,0,4.3-0.4,6.2-1.1c3-1.1,2.8-6,2.2-8.5c-0.8-3.7-1.7-7.2-2.5-10.5c-3.7-13.9-7.6-27.6-11.7-41.2
	c-0.1-0.2-0.2-0.3-0.3-0.3l-99.5,0c-0.2,0-0.3,0.1-0.4,0.3c-2.8,10.9-4.9,21.6-6.3,32.1c-1,7.8-2,19.5,5.2,24.9c3,2.3,6,3.6,8.9,4
	c3.3,0.4,8,0.5,14.1,0.3c0.2,0,0.4,0.1,0.4,0.3v2.2c0,0.2-0.1,0.3-0.3,0.3H98.6c-0.1,0-0.2-0.1-0.2-0.2l0-2.7c0-0.2,0.1-0.3,0.3-0.3
	c6.9-0.2,14.2,1.2,20-3.7c2.3-2,4.8-4.4,6.5-7c4.4-6.6,7.5-12.9,9.3-18.7c8.9-28.4,18.8-60.7,29.7-96.9
	C164.2,279.9,164.1,279.8,163.7,279.9 M208.2,147l19.6,65.6c0.2,0.6,0.4,0.6,0.7,0c5.2-11.8,8.6-24.4,10.3-37.9
	c1.5-11.7,1.6-23.4,0.4-35.2c-4.4-42.7-28.4-83-68.3-100.7c-11-4.9-22.4-7.8-34.2-8.8c-2.7-0.2-5.5-0.5-8.1-0.5c-16,0-32-0.1-48,0
	c-0.2,0-0.3,0.1-0.3,0.3v251c0,0.4,0.2,0.6,0.6,0.5c13.6,0,27.6,0,42,0c6.4,0,12.2-0.3,17.5-0.9c8.3-1,16.6-2.9,24.8-5.9
	c0.6-0.2,1.1-0.7,1.3-1.3c13-43.5,25.8-85.6,38.3-126.4c0.1-0.4,0.4-0.6,0.8-0.6h1.8C207.8,146.2,208.1,146.5,208.2,147
	 M469.8,177.5c5.9-16.3,12.2-32.5,17-49.7c2.4-8.5,3.9-17,4.4-25.5c0.5-8.3-0.8-17.7-4.8-25.1c-7-13-22.5-18.1-36.1-19
	c-3.3-0.2-6.4-0.4-9.5-0.5c-2-0.1-4,0-6.1,0.1c-2,0.1-4,0.3-6.1,0.5c-12.3,1-25.1,6.8-33,16.6c-7.4,9.2-10.9,20-10.3,32.3
	c0.4,8.1,2.1,15.2,5.1,21.4c5.5,11.2,14.7,20.1,25.5,27.3c6.6,4.4,12.5,7.9,17.6,10.5c11.9,6.1,23,12,33.3,17.8
	c0.3,0.1,0.4,0.1,0.6-0.2C468.1,182,468.9,179.8,469.8,177.5 M216.1,233.7c-5.3-17.2-10.9-34.4-16.7-53.3c0-0.1-0.1-0.3-0.3-0.3
	c-0.3-0.1-0.4-0.1-0.5,0.2c-0.1,0.4-0.2,0.7-0.3,1.1c-6.8,23.4-16,53.6-27.7,90.3c-0.1,0.4,0,0.6,0.4,0.4
	c18.2-8.3,33.2-20.7,44.8-37.2C216.2,234.5,216.2,234.1,216.1,233.7 M220.4,248.8c-14.7,13.8-31.8,23.4-51.2,29.6
	c-0.4,0.1-0.7,0.4-0.8,0.8c-6.5,21.1-12.4,41.8-17.5,62.2c-0.1,0.3,0.2,0.6,0.5,0.6l97.2,0c0.3,0,0.4-0.2,0.4-0.5l-28.1-92.6
	C220.9,248.7,220.6,248.6,220.4,248.8L220.4,248.8z"/>
</svg>
